<svg id="图层_1" data-name="图层 1" xmlns="http://www.w3.org/2000/svg" viewBox="0 0 850.39 850.39"><defs><style>.cls-1{stroke:#000;stroke-miterlimit:10;stroke-width:10px;}</style></defs><path class="cls-1" d="M796.65,286.7c44-55.51,57.87-103.93,41.31-143.92-9.38-22.65-29.38-38.32-56.31-44.13-62.34-13.44-152.9,25.88-217.91,61.24-98.89,53.8-208.38,136.1-316.63,238a37.42,37.42,0,0,0,25.51,64.68H306c.36,0,.72.06,1.09.06h173.1c-88,75.07-175.46,135.65-252.07,174.18C132.82,684.72,89.53,681.64,80.83,677.6c-2.69-9.74,3.73-32.37,30.67-66.59,23.68-30.09,51.2-53.74,51.45-54a37.48,37.48,0,0,0,10.9-41.3A264.72,264.72,0,0,1,158,425.22c0-145.94,118.33-264.67,263.79-264.67a37.4,37.4,0,0,0,0-74.8C235.26,85.75,83.47,238,83.47,425.22a340.45,340.45,0,0,0,12.58,92,495.75,495.75,0,0,0-42.31,46.47C9.77,619.2-4.13,667.62,12.43,707.61c9.38,22.65,29.38,38.33,56.32,44.13a129,129,0,0,0,27.18,2.7c59.58,0,134.66-33.44,190.72-63.94,98.89-53.8,208.38-136.1,316.63-238a37.42,37.42,0,0,0-25.5-64.68H544.42c-.36,0-.71-.05-1.07-.05H370.24c88-75.07,175.47-135.66,252.08-174.19,95.25-47.91,138.54-44.83,147.24-40.79,2.69,9.74-3.72,32.38-30.66,66.6-23.68,30.08-51.2,53.73-51.45,53.94a37.5,37.5,0,0,0-10.91,41.31,264.39,264.39,0,0,1,15.83,90.53c0,145.94-118.34,264.67-263.8,264.67a37.4,37.4,0,0,0,0,74.8c186.57,0,338.35-152.28,338.35-339.47a340.44,340.44,0,0,0-12.57-92A494.65,494.65,0,0,0,796.65,286.7Z"/></svg>